<?xml version="1.0" encoding="UTF-8"?>
<!-- The Best Svg Icon site in the world: iconSvg.co, Visit us! https://iconsvg.co -->
<svg fill="#000000" width="800px" height="800px" version="1.1" viewBox="144 144 512 512" xmlns="http://www.w3.org/2000/svg">
 <g>
  <path d="m281.09 309.42v187.42c0.007812 8.0898 3.2266 15.848 8.9492 21.566 5.7188 5.7227 13.477 8.9414 21.566 8.9492h187.42c8.0898-0.007813 15.848-3.2266 21.57-8.9492 5.7188-5.7188 8.9375-13.477 8.9453-21.566v-131.18c0-4.1875-3.3945-7.582-7.582-7.582s-7.582 3.3945-7.582 7.582v131.18c-0.003906 4.0703-1.6211 7.9727-4.5 10.852-2.8789 2.875-6.7812 4.4961-10.852 4.5h-187.42c-4.0703-0.003906-7.9727-1.625-10.848-4.5-2.8789-2.8789-4.5-6.7812-4.5039-10.852v-187.42c0.003906-4.0703 1.625-7.9727 4.5039-10.852 2.875-2.8789 6.7773-4.4961 10.848-4.5h132.77c4.1875 0 7.582-3.3984 7.582-7.5859s-3.3945-7.582-7.582-7.582h-132.77c-8.0898 0.011718-15.848 3.2266-21.566 8.9492-5.7227 5.7227-8.9414 13.477-8.9492 21.57z"/>
  <path d="m543.05 277.38-8.6641-8.6641c-3.9688-3.957-9.3438-6.1797-14.945-6.1797s-10.977 2.2227-14.945 6.1797l-147.98 147.99c-0.83594 0.82812-1.4609 1.8438-1.832 2.9609l-13.914 41.746h-0.003907c-0.91016 2.7266-0.19922 5.7305 1.832 7.7617 2.0273 2.0312 5.0352 2.7383 7.7578 1.832l41.75-13.918c1.1172-0.37109 2.1328-0.99609 2.9609-1.832l8.6523-8.6484 139.34-139.34c3.957-3.9688 6.1797-9.3398 6.1797-14.945 0-5.6016-2.2227-10.977-6.1797-14.945zm-10.723 19.168-146.72 146.72-25.664 8.5547 8.5547-25.66 146.72-146.72c2.3359-2.3203 6.1094-2.3203 8.4453 0l8.6602 8.6641c2.3281 2.332 2.332 6.1094 0.003907 8.4453z"/>
 </g>
</svg>